<mxfile host="app.diagrams.net" modified="2020-10-20T07:53:55.998Z" agent="5.0 (Windows NT 10.0; Win64; x64) AppleWebKit/537.36 (KHTML, like Gecko) Chrome/86.0.4240.75 Safari/537.36" etag="dFSYJOfb0EH3Rb57wwDE" version="13.8.0" type="github">
  <diagram id="C5RBs43oDa-KdzZeNtuy" name="Page-1">
    <mxGraphModel dx="868" dy="425" grid="1" gridSize="10" guides="1" tooltips="1" connect="1" arrows="1" fold="1" page="1" pageScale="1" pageWidth="827" pageHeight="1169" math="0" shadow="0">
      <root>
        <mxCell id="WIyWlLk6GJQsqaUBKTNV-0" />
        <mxCell id="WIyWlLk6GJQsqaUBKTNV-1" parent="WIyWlLk6GJQsqaUBKTNV-0" />
        <mxCell id="8D5XjBWYnTZK3mnM2CtC-0" value="Book" style="html=1;" parent="WIyWlLk6GJQsqaUBKTNV-1" vertex="1">
          <mxGeometry x="350" y="230" width="110" height="50" as="geometry" />
        </mxCell>
        <mxCell id="8D5XjBWYnTZK3mnM2CtC-1" value="Author" style="html=1;" parent="WIyWlLk6GJQsqaUBKTNV-1" vertex="1">
          <mxGeometry x="630" y="30" width="110" height="50" as="geometry" />
        </mxCell>
        <mxCell id="8D5XjBWYnTZK3mnM2CtC-2" value="Owner" style="html=1;" parent="WIyWlLk6GJQsqaUBKTNV-1" vertex="1">
          <mxGeometry x="350" y="30" width="110" height="50" as="geometry" />
        </mxCell>
        <mxCell id="8D5XjBWYnTZK3mnM2CtC-3" value="Publisher" style="html=1;" parent="WIyWlLk6GJQsqaUBKTNV-1" vertex="1">
          <mxGeometry x="630" y="230" width="110" height="50" as="geometry" />
        </mxCell>
        <mxCell id="8D5XjBWYnTZK3mnM2CtC-4" value="Library" style="html=1;" parent="WIyWlLk6GJQsqaUBKTNV-1" vertex="1">
          <mxGeometry x="350" y="400" width="110" height="50" as="geometry" />
        </mxCell>
        <mxCell id="8D5XjBWYnTZK3mnM2CtC-5" value="Fiction category" style="html=1;" parent="WIyWlLk6GJQsqaUBKTNV-1" vertex="1">
          <mxGeometry x="180" y="585" width="110" height="50" as="geometry" />
        </mxCell>
        <mxCell id="8D5XjBWYnTZK3mnM2CtC-6" value="Mystery category" style="html=1;" parent="WIyWlLk6GJQsqaUBKTNV-1" vertex="1">
          <mxGeometry x="500" y="585" width="110" height="50" as="geometry" />
        </mxCell>
        <mxCell id="Eyy84se6Yplb705f3HH7-4" value="" style="endArrow=none;html=1;" edge="1" parent="WIyWlLk6GJQsqaUBKTNV-1">
          <mxGeometry width="50" height="50" relative="1" as="geometry">
            <mxPoint x="230" y="530" as="sourcePoint" />
            <mxPoint x="560" y="530" as="targetPoint" />
          </mxGeometry>
        </mxCell>
        <mxCell id="Eyy84se6Yplb705f3HH7-5" value="" style="endArrow=none;html=1;exitX=0.445;exitY=0.02;exitDx=0;exitDy=0;exitPerimeter=0;" edge="1" parent="WIyWlLk6GJQsqaUBKTNV-1" source="8D5XjBWYnTZK3mnM2CtC-5">
          <mxGeometry width="50" height="50" relative="1" as="geometry">
            <mxPoint x="180" y="580" as="sourcePoint" />
            <mxPoint x="230" y="530" as="targetPoint" />
          </mxGeometry>
        </mxCell>
        <mxCell id="Eyy84se6Yplb705f3HH7-6" value="" style="endArrow=none;html=1;" edge="1" parent="WIyWlLk6GJQsqaUBKTNV-1">
          <mxGeometry width="50" height="50" relative="1" as="geometry">
            <mxPoint x="560" y="587" as="sourcePoint" />
            <mxPoint x="560" y="530" as="targetPoint" />
          </mxGeometry>
        </mxCell>
        <mxCell id="Eyy84se6Yplb705f3HH7-7" value="" style="endArrow=block;endSize=16;endFill=0;html=1;entryX=0.5;entryY=1;entryDx=0;entryDy=0;" edge="1" parent="WIyWlLk6GJQsqaUBKTNV-1" target="8D5XjBWYnTZK3mnM2CtC-4">
          <mxGeometry width="160" relative="1" as="geometry">
            <mxPoint x="405" y="530" as="sourcePoint" />
            <mxPoint x="480" y="490" as="targetPoint" />
          </mxGeometry>
        </mxCell>
        <mxCell id="Eyy84se6Yplb705f3HH7-8" value="" style="endArrow=diamondThin;endFill=1;endSize=24;html=1;entryX=0.5;entryY=1;entryDx=0;entryDy=0;exitX=0.5;exitY=0;exitDx=0;exitDy=0;" edge="1" parent="WIyWlLk6GJQsqaUBKTNV-1" source="8D5XjBWYnTZK3mnM2CtC-4" target="8D5XjBWYnTZK3mnM2CtC-0">
          <mxGeometry width="160" relative="1" as="geometry">
            <mxPoint x="330" y="340" as="sourcePoint" />
            <mxPoint x="490" y="340" as="targetPoint" />
          </mxGeometry>
        </mxCell>
        <mxCell id="Eyy84se6Yplb705f3HH7-9" value="" style="endArrow=block;endSize=16;endFill=0;html=1;entryX=0.5;entryY=1;entryDx=0;entryDy=0;exitX=0.5;exitY=0;exitDx=0;exitDy=0;" edge="1" parent="WIyWlLk6GJQsqaUBKTNV-1" source="8D5XjBWYnTZK3mnM2CtC-0" target="8D5XjBWYnTZK3mnM2CtC-2">
          <mxGeometry width="160" relative="1" as="geometry">
            <mxPoint x="350" y="160" as="sourcePoint" />
            <mxPoint x="510" y="160" as="targetPoint" />
          </mxGeometry>
        </mxCell>
        <mxCell id="Eyy84se6Yplb705f3HH7-10" value="" style="endArrow=diamondThin;endFill=1;endSize=24;html=1;entryX=0.5;entryY=1;entryDx=0;entryDy=0;exitX=0.5;exitY=0;exitDx=0;exitDy=0;" edge="1" parent="WIyWlLk6GJQsqaUBKTNV-1" source="8D5XjBWYnTZK3mnM2CtC-3" target="8D5XjBWYnTZK3mnM2CtC-1">
          <mxGeometry width="160" relative="1" as="geometry">
            <mxPoint x="570" y="160" as="sourcePoint" />
            <mxPoint x="730" y="160" as="targetPoint" />
          </mxGeometry>
        </mxCell>
        <mxCell id="Eyy84se6Yplb705f3HH7-11" value="" style="endArrow=block;endSize=16;endFill=0;html=1;exitX=1;exitY=0.5;exitDx=0;exitDy=0;" edge="1" parent="WIyWlLk6GJQsqaUBKTNV-1" source="8D5XjBWYnTZK3mnM2CtC-0">
          <mxGeometry width="160" relative="1" as="geometry">
            <mxPoint x="475" y="254.5" as="sourcePoint" />
            <mxPoint x="630" y="255" as="targetPoint" />
          </mxGeometry>
        </mxCell>
      </root>
    </mxGraphModel>
  </diagram>
</mxfile>
